<?xml version="1.0" encoding="UTF-8" standalone="no"?>
<svg
   id="recipe-book"
   width="206.67599"
   height="230.319"
   viewBox="0 0 206.67599 230.319"
   version="1.1"
   sodipodi:docname="appiconfg.svg"
   inkscape:version="1.1 (c68e22c387, 2021-05-23)"
   xmlns:inkscape="http://www.inkscape.org/namespaces/inkscape"
   xmlns:sodipodi="http://sodipodi.sourceforge.net/DTD/sodipodi-0.dtd"
   xmlns="http://www.w3.org/2000/svg"
   xmlns:svg="http://www.w3.org/2000/svg">
  <defs
     id="defs20" />
  <sodipodi:namedview
     id="namedview18"
     pagecolor="#ffffff"
     bordercolor="#666666"
     borderopacity="1.0"
     inkscape:pageshadow="2"
     inkscape:pageopacity="0.0"
     inkscape:pagecheckerboard="0"
     showgrid="false"
     fit-margin-left="50"
     fit-margin-top="50"
     fit-margin-right="50"
     fit-margin-bottom="50"
     inkscape:zoom="2.8890645"
     inkscape:cx="63.515369"
     inkscape:cy="135.16486"
     inkscape:window-width="1852"
     inkscape:window-height="1177"
     inkscape:window-x="1912"
     inkscape:window-y="-8"
     inkscape:window-maximized="1"
     inkscape:current-layer="recipe-book" />
  <g
     id="icon_52_"
     transform="translate(50,50)">
    <path
       id="Path_1"
       data-name="Path 1"
       d="M 145.973,0 V 130.319 H 51.914 A 12.613,12.613 0 0 1 39.3,117.705 V 10.924 A 10.924,10.924 0 0 1 50.225,0 Z"
       transform="translate(-39.298)"
       fill="#f6b863" />
    <path
       id="Path_2"
       data-name="Path 2"
       d="m 145.966,122.7 v 7.614 H 51.906 A 12.636,12.636 0 0 1 39.29,117.7 V 10.924 A 10.926,10.926 0 0 1 50.217,0 h 2.468 v 122.7 z"
       transform="translate(-39.29)"
       fill="#eaa14e" />
    <path
       id="Path_3"
       data-name="Path 3"
       d="m 150.3,352.456 v 22.216 H 56.6 A 11.1,11.1 0 0 1 45.492,363.583 v -0.024 a 11.468,11.468 0 0 1 3.548,-7.871 10.458,10.458 0 0 1 7.56,-3.232 z"
       transform="translate(-43.624,-246.409)"
       fill="#eeefee" />
    <path
       id="Path_4"
       data-name="Path 4"
       d="m 115.512,370.291 v 15.19 l -6.436,-7.357 -6.436,7.357 v -15.19 z"
       transform="translate(-83.579,-258.878)"
       fill="#ef5261" />
    <path
       id="Path_5"
       data-name="Path 5"
       d="m 125.536,244.494 h 66.324 a 1.321,1.321 0 0 1 1.321,1.321 v 0 a 1.321,1.321 0 0 1 -1.321,1.321 h -66.324 a 1.321,1.321 0 0 1 -1.321,-1.321 v 0 a 1.321,1.321 0 0 1 1.321,-1.321 z"
       transform="translate(-98.663,-170.931)"
       fill="#eaa14e" />
    <path
       id="Path_6"
       data-name="Path 6"
       d="m 125.536,274.294 h 66.324 a 1.321,1.321 0 0 1 1.321,1.321 v 0 a 1.321,1.321 0 0 1 -1.321,1.321 h -66.324 a 1.321,1.321 0 0 1 -1.321,-1.321 v 0 a 1.321,1.321 0 0 1 1.321,-1.321 z"
       transform="translate(-98.663,-191.765)"
       fill="#eaa14e" />
    <path
       id="Path_7"
       data-name="Path 7"
       d="m 125.536,304.093 h 45.726 a 1.321,1.321 0 0 1 1.321,1.321 v 0 a 1.321,1.321 0 0 1 -1.321,1.321 h -45.726 a 1.321,1.321 0 0 1 -1.321,-1.321 v 0 a 1.321,1.321 0 0 1 1.321,-1.321 z"
       transform="translate(-98.663,-212.598)"
       fill="#eaa14e" />
    <path
       id="Path_8"
       data-name="Path 8"
       d="M 203.468,58.194 A 11.874,11.874 0 0 1 191.595,70.06 v 18.479 h -29.77 V 70.06 h -0.008 a 11.866,11.866 0 1 1 2.719,-23.422 15.133,15.133 0 0 1 24.35,0 11.891,11.891 0 0 1 14.584,11.556 z"
       transform="translate(-116.674,-28.309)"
       fill="#eeefee" />
    <g
       id="Group_1"
       data-name="Group 1"
       transform="translate(50.673,40.215)">
      <path
         id="Path_9"
         data-name="Path 9"
         d="m 267.575,133.657 h 0.735 v 15.2 h -0.735 z"
         transform="translate(-249.562,-133.657)"
         fill="#dbd8dd" />
      <path
         id="Path_10"
         data-name="Path 10"
         d="m 247.618,134.935 h 0.735 v 15.2 h -0.735 z"
         transform="translate(-235.609,-134.55)"
         fill="#dbd8dd" />
      <path
         id="Path_11"
         data-name="Path 11"
         d="m 227.662,134.935 h 0.735 v 15.2 h -0.735 z"
         transform="translate(-221.658,-134.55)"
         fill="#dbd8dd" />
      <path
         id="Path_12"
         data-name="Path 12"
         d="m 207.706,134.935 h 0.735 v 15.2 h -0.735 z"
         transform="translate(-207.706,-134.55)"
         fill="#dbd8dd" />
    </g>
    <path
       id="Path_13"
       data-name="Path 13"
       d="m 189.352,179.027 h 29.77 v 2.6 h -29.77 z"
       transform="translate(-144.201,-125.161)"
       fill="#ef5261" />
  </g>
</svg>
